<svg xmlns="http://www.w3.org/2000/svg" viewBox="0 0 240 240"><defs><style>.a{fill:#00788c;}.b{fill:#f2f5f6;}</style></defs><circle class="a" cx="120" cy="120" r="120"/><path class="b" d="M119.77,84a35.41,35.41,0,1,0,35.41,35.41A35.44,35.44,0,0,0,119.77,84Zm0,59a23.61,23.61,0,1,1,23.6-23.61A23.63,23.63,0,0,1,119.77,143Z"/><rect class="b" x="113.87" y="29.4" width="11.8" height="32.46"/><rect class="b" x="76.98" y="39.28" width="11.8" height="32.46" transform="matrix(0.87, -0.5, 0.5, 0.87, -16.65, 48.88)"/><rect class="b" x="49.98" y="66.28" width="11.8" height="32.46" transform="translate(-43.52 89.65) rotate(-60)"/><path class="b" d="M119.77,199.07a79.68,79.68,0,0,0,79.44-73.77h10.56V113.5H177.31v11.8h10.06a67.86,67.86,0,0,1-135.2,0H62.23V113.5H29.77v11.8H40.32A79.69,79.69,0,0,0,119.77,199.07Z"/><rect class="b" x="167.42" y="76.61" width="32.46" height="11.8" transform="translate(-16.65 102.88) rotate(-30)"/><rect class="b" x="140.42" y="49.61" width="32.46" height="11.8" transform="matrix(0.5, -0.87, 0.87, 0.5, 30.25, 163.42)"/><path class="b" d="M119.77,84a35.41,35.41,0,1,0,35.41,35.41A35.44,35.44,0,0,0,119.77,84Zm0,59a23.61,23.61,0,1,1,23.6-23.61A23.63,23.63,0,0,1,119.77,143Z"/><rect class="b" x="113.87" y="29.4" width="11.8" height="32.46"/><rect class="b" x="76.98" y="39.28" width="11.8" height="32.46" transform="matrix(0.87, -0.5, 0.5, 0.87, -16.65, 48.88)"/><rect class="b" x="49.98" y="66.28" width="11.8" height="32.46" transform="translate(-43.52 89.65) rotate(-60)"/><path class="b" d="M119.77,199.07a79.68,79.68,0,0,0,79.44-73.77h10.56V113.5H177.31v11.8h10.06a67.86,67.86,0,0,1-135.2,0H62.23V113.5H29.77v11.8H40.32A79.69,79.69,0,0,0,119.77,199.07Z"/><rect class="b" x="167.42" y="76.61" width="32.46" height="11.8" transform="translate(-16.65 102.88) rotate(-30)"/><rect class="b" x="140.42" y="49.61" width="32.46" height="11.8" transform="matrix(0.5, -0.87, 0.87, 0.5, 30.25, 163.42)"/></svg>